<svg viewBox="0 0 24 24" xmlns="http://www.w3.org/2000/svg">
  <!-- PlayStation "PS" logo -->
  <!-- P shape -->
  <path d="M 6 4 L 6 20 L 12 20 Q 14.5 20 14.5 17.5 Q 14.5 15.5 12.5 15 L 6 15 M 6 4 Q 8 4 10 4 Q 13 4 13 6.5 Q 13 9 10 9 L 6 9" fill="white" stroke="white" stroke-width="0.5" stroke-linejoin="round"/>
  <!-- S shape overlapping -->
  <path d="M 13 10 L 11 12 L 13 14 Q 15 14 15 16 Q 15 18 13 18 L 11 18 L 13 20 L 14.5 20 Q 17 20 17 18 Q 17 16.5 15.5 16 Q 17 15.5 17 14 Q 17 12 14.5 12 Q 13 12 13 13.5 L 13 10" fill="white"/>
</svg>