<svg viewBox="0 0 24 24" xmlns="http://www.w3.org/2000/svg">
  <!-- STC (Saudi Telecom) stylized text -->
  <!-- Letter S -->
  <path d="M 3 5 L 6 5 Q 7 5 7 6 L 7 7 Q 7 8 6 8 L 3 8 L 3 9 Q 3 10 4 10 L 7 10 Q 8 10 8 11 L 8 12 Q 8 13 7 13 L 3 13" fill="none" stroke="white" stroke-width="1.5" stroke-linecap="round" stroke-linejoin="round"/>
  <!-- Letter T -->
  <path d="M 10 5 L 14 5 M 12 5 L 12 13" fill="none" stroke="white" stroke-width="1.5" stroke-linecap="round" stroke-linejoin="round"/>
  <!-- Letter C -->
  <path d="M 18 5 Q 16 5 16 7 L 16 11 Q 16 13 18 13 Q 19.5 13 20 12.5" fill="none" stroke="white" stroke-width="1.5" stroke-linecap="round" stroke-linejoin="round"/>
  <!-- Decorative dot element -->
  <circle cx="12" cy="16" r="1" fill="white"/>
  <circle cx="8" cy="16" r="0.8" fill="white"/>
  <circle cx="16" cy="16" r="0.8" fill="white"/>
</svg>